<svg xmlns="http://www.w3.org/2000/svg" width="462.516" height="407.971" viewBox="0 0 462.516 407.971">
    <defs>
        <clipPath id="tng6xqb1ha">
            <path data-name="패스 28550" d="M326.249 380.435a48.7 48.7 0 0 0-.2 17.842l15.686-30.8c-2.863 2.646-13.148 3.737-15.49 12.961" transform="translate(-325.324 -367.474)" style="fill:none"/>
        </clipPath>
        <clipPath id="1w1cdu64kb">
            <path data-name="사각형 10716" style="fill:none" d="M0 0h12.565v24.493H0z"/>
        </clipPath>
        <clipPath id="thanc4y5nc">
            <path data-name="사각형 10717" style="fill:none" d="M0 0h62.245v28.275H0z"/>
        </clipPath>
        <clipPath id="54ur00r4md">
            <path data-name="사각형 10718" style="fill:none" d="M0 0h16.766v23.051H0z"/>
        </clipPath>
        <clipPath id="5w8csqfz9e">
            <path data-name="사각형 10719" style="fill:none" d="M0 0h15.027v49.552H0z"/>
        </clipPath>
        <clipPath id="x4b3esu2hf">
            <path data-name="사각형 10720" style="fill:none" d="M0 0h34.532v89.911H0z"/>
        </clipPath>
        <clipPath id="i3xge8tbhg">
            <path data-name="사각형 10723" style="fill:none" d="M0 0h4.909v25.677H0z"/>
        </clipPath>
    </defs>
    <g data-name="그룹 48737">
        <g data-name="그룹 48716">
            <g data-name="그룹 48810">
                <path data-name="패스 28543" d="M325.012 483.38c5.906-5.5 7.694-17.424 8.254-29.561l-10.349-23.284-4.656 3.881a181.065 181.065 0 0 1-4.139 33.633z" transform="translate(-99.589 -136.497)" style="fill:#f7a19f"/>
                <path data-name="패스 28544" d="M305.429 278.989c-.337 6.136 16.9 54.895 27.45 48.153 11.844-7.38 25.112-20.173 25.855-30.277-2.674-13.968-8.549-34.736-11.893-33.188-1.974-.278-41.412 15.312-41.412 15.312" transform="translate(-96.832 -83.57)" style="fill:#f7a19f"/>
                <path data-name="패스 28545" d="M301.809 265.85v-.377c.491-16.849 10.932-25.313 19.6-29.447a38.058 38.058 0 0 1 16.988-3.77c.841.015 1.667.049 2.455.1 23.241 1.544 28.257 24.523 31.577 39.73 1.246 5.71 2.321 10.641 3.943 12.938a14.972 14.972 0 0 0 4.1 3.863l.07.036c13.406 4.779 31.766 11.324 35.168 33.776a40 40 0 0 1 .352 10.71 27.859 27.859 0 0 1-1.143 5.372c-.11.541.338.733.578.373a28.634 28.634 0 0 0 1.218-5.668 40.69 40.69 0 0 0-.356-10.89c-3.458-22.831-22-29.462-35.565-34.3a14.313 14.313 0 0 1-3.894-3.671c-1.541-2.186-2.6-7.054-3.834-12.691-3.362-15.4-8.442-38.679-32.176-40.254-.8-.053-1.635-.088-2.486-.1a38.694 38.694 0 0 0-17.277 3.833c-8.84 4.214-19.483 12.845-19.985 30.037-.009.309 0 .607.008.9a4.879 4.879 0 0 1 .65-.5" transform="translate(-95.476 -73.419)" style="fill:#092256"/>
                <path data-name="패스 28546" d="M415.023 324.018c-3.277-21.113-20.531-27.719-35.62-32.969a17.356 17.356 0 0 1-4.933-4.486c-6.771-9.374-3.909-50.635-35.612-52.689q-1.194-.078-2.469-.1a38.851 38.851 0 0 0-16.892 3.663c-10.967 5.1-18.952 14.288-19.373 28.355-.189 6.347 5.415 8.44 11.274 10.362a52.415 52.415 0 0 0 16.058 2.933c15.173 0 14.337-9.819 21.7-9.819 3.074 0 4.307 4.311 4.307 7.267 0 1.288 1.445 1.648 1.308 2.944-2.605 6.567.512 16.476-1.878 25.44.137.451-8.224 4.872-8.092 5.3.856 5.531 1.955 11.128 4.926 16.014 9.225 15.17 15.981 24.693 28.763 28.772a28.587 28.587 0 0 0 5.378 1.14c13.762 1.6 29.54-4.827 31.51-21.728a38.289 38.289 0 0 0-.358-10.4" transform="translate(-95.15 -74.114)" style="fill:#092256"/>
                <path data-name="패스 28547" d="M399.839 335.6c-8.2-10.472-17.757-6.83-25.042-10.017s-15.025-13.659-13.659-29.139-1.821-18.668-5.919-22.31-14.57-4.245-20.489 6.374c-4.734 8.494-23.147 6.86-30.337 3.8 2.142 1.767 5.21 2.856 8.359 3.889a52.425 52.425 0 0 0 16.059 2.933c15.173 0 14.337-9.819 21.7-9.819 3.074 0 4.306 4.311 4.306 7.267 0 1.288.284 4.908.263 14.667.137.451-9.057 18.589-8.925 19.014.856 5.531 1.955 11.128 4.926 16.014 2.855 4.695 5.473 8.845 8.107 12.464l24.977 17.3c.35.053.7.106 1.057.148 8.037.937 16.757-.873 23.018-5.9-.569-6.328-2.427-19.043-8.4-26.68" transform="translate(-96.505 -86.154)" style="fill:#031433"/>
                <path data-name="패스 28548" d="M326.053 398.278a48.685 48.685 0 0 1 .2-17.842c2.341-9.225 12.626-10.314 15.49-12.96z" transform="translate(-103.141 -116.505)" style="fill:#ff4966"/>
            </g>
        </g>
        <g data-name="그룹 48721">
            <g data-name="그룹 48720" style="clip-path:url(#tng6xqb1ha)" transform="translate(222.183 250.97)">
                <g data-name="그룹 48719" style="mix-blend-mode:multiply;isolation:isolate;opacity:.7">
                    <g data-name="그룹 48718">
                        <g data-name="그룹 48717" style="clip-path:url(#1w1cdu64kb)" transform="translate(.004 5.096)">
                            <path data-name="패스 28549" d="M337.887 374.935c-.157.315-8.395 12.1-12.555 16.653a48.943 48.943 0 0 0 .468 7.715l.129.126s.63-.611 1.554-1.589l9.053-17.777c.769-2.782 1.433-5.124 1.352-5.126" transform="translate(-325.329 -374.935)" style="fill:#ff4966"/>
                        </g>
                    </g>
                </g>
            </g>
        </g>
        <path data-name="패스 28551" d="M330.547 489.885a82.159 82.159 0 0 0-.04 3.043l91.446 2.124c-15.681-31.779-20.819-87.473-20.652-98.644-1.168-16.745-7.162-25.519-26.2-30.786-4.011.466-20.05 5.034-38.744 3.224-5.214 16.778-18.281 26.391-18.537 40.374-.393 21.474 14.684 25.941 15.406 50.463.281 9.541-2.4 21.826-2.677 30.2" transform="translate(-100.759 -115.917)" style="fill:#ff4966"/>
        <path data-name="패스 28552" d="m296.235 485.209-38.527 39.984 5.968 5.869a7.863 7.863 0 0 1 2.76.417c.593.12 1.183.255 1.772.395 10.029-13.112 19.371-7.871 38.919-31.334 4.635-20.346-10.891-15.331-10.891-15.331" transform="translate(-81.703 -153.658)" style="fill:#f7a19f"/>
        <path data-name="패스 28553" d="M384.563 350.914c-15.585 37.022-45.873 32.909-39.031 5.792 1.707-6.875 4.2-11.488-.848-27.258l22.958-11.333c-.008 16.847 7.131 27.74 16.922 32.8" transform="translate(-109.234 -100.856)" style="fill:#f7a19f"/>
        <path data-name="패스 28554" d="M361.863 492.98c8-5.459 31.686-27.37 35.854-31.307-6.366-14.546-12.6-34.1-12.7-48.148 11-.2 13.383 3.787 24.078.206 4.433 13.248 12.544 44.7 10.9 60.551-1.675 8.1-42.651 22.22-51.481 26.634-3.073 1.537-4.181 4.072-6.392 4.072-9.473 0-23.372 1.471-25.313 0-.333-1.142 1.494-1.451 6.958-6.061 1.494-1.26 6.074-1.352 8.878-1.964 5.034-1.1 5.352-1.352 9.211-3.984" transform="translate(-106.772 -131.102)" style="fill:#f7a19f"/>
        <g data-name="그룹 48724" style="opacity:.35;mix-blend-mode:multiply;isolation:isolate">
            <g data-name="그룹 48723">
                <g data-name="그룹 48722" style="clip-path:url(#thanc4y5nc)" transform="translate(249.395 345.748)">
                    <path data-name="패스 28555" d="M365.168 534.525c2.075-.08 4.1-.137 5.961-.137 2.211 0 3.32-2.535 6.392-4.072 7.955-3.977 42-15.835 49.892-24.067a3.754 3.754 0 0 0-1.306.735c-6.83 5.464-38.416 14-50.88 20.659-6.424 3.432-9.034 5.591-10.059 6.881" transform="translate(-365.168 -506.25)" style="fill:#f7a19f"/>
                </g>
            </g>
        </g>
        <g data-name="그룹 48727" style="opacity:.5;mix-blend-mode:multiply;isolation:isolate">
            <g data-name="그룹 48726">
                <g data-name="그룹 48725" style="clip-path:url(#54ur00r4md)" transform="translate(238.059 225.625)">
                    <path data-name="패스 28556" d="M365.335 330.364c-2.277 4.779-10.919 13.323-16.456 16.431a27.239 27.239 0 0 1-.309 6.62c13.785-9.141 16.173-20.877 16.765-23.051" transform="translate(-348.569 -330.364)" style="fill:#f7a19f"/>
                </g>
            </g>
        </g>
        <g data-name="그룹 48730" style="opacity:.5;mix-blend-mode:multiply;isolation:isolate">
            <g data-name="그룹 48729">
                <g data-name="그룹 48728" style="clip-path:url(#5w8csqfz9e)" transform="translate(216.441 304.14)">
                    <path data-name="패스 28557" d="m316.917 489.164 2.836 5.714c1.934-1.961 3.975-4.2 6.145-6.809 2.89-2.692 4.79-6.927 6.046-11.968-2.71-13.322-10.092-19.836-13.106-30.775-.112 1.8-.24 3.519-.387 5.17-.126 1.422 17.859 27.1-1.534 38.669" transform="translate(-316.917 -445.326)" style="fill:#f7a19f"/>
                </g>
            </g>
        </g>
        <path data-name="패스 28558" d="M412.336 373.659c10.188 7.74 11.921 13.3 17.672 36.4.247.989-.634 2.033-1.478 2.605-8.65 7.822-18.952 8.618-27.6 5.1L393 385.238c3.277-1.768 13.732-7.383 19.338-11.579" transform="translate(-124.596 -118.465)" style="fill:#ff4966"/>
        <g data-name="그룹 48733" style="opacity:.5;mix-blend-mode:multiply;isolation:isolate">
            <g data-name="그룹 48732">
                <g data-name="그룹 48731" style="clip-path:url(#x4b3esu2hf)" transform="translate(255.999 271.325)">
                    <path data-name="패스 28559" d="m387.112 476.68 22.258-20.241c-.563-1.274-3.455-8.128-10.288-29.029-5.712-17.474-3.711-26.493-2.179-30.132-1.981 3.421-4.652 11.749-.342 29.229 2.644 10.725 4.594 17.5 5.956 21.737a12.823 12.823 0 0 1-2.782 12.616c-7.1 7.7-19.35 20.906-24.9 26.329 2.95-2.14 7.429-5.895 12.223-10.075a.336.336 0 0 1 .051-.435" transform="translate(-374.838 -397.278)" style="fill:#f13b58"/>
                </g>
            </g>
        </g>
        <path data-name="패스 28560" d="M525.443 537.544h-30.65v-35.053a1.994 1.994 0 0 1 1.994-1.994h26.661a1.994 1.994 0 0 1 1.994 1.994z" transform="translate(-156.869 -158.678)" style="fill:#f9af43"/>
        <path data-name="패스 28561" d="M525.443 534.471c-8.143-.585-13.847-3.017-18.115-8.651-4.349-5.741-6-16.306-6.287-25.323h-4.253a1.994 1.994 0 0 0-1.994 1.994v35.053h30.65z" transform="translate(-156.869 -158.678)" style="fill:#f7c17f"/>
        <path data-name="패스 28562" d="M540.976 506.242h-6.6l-.227 3.87h6.488a3.756 3.756 0 0 1 3.756 3.756v6.412a6.587 6.587 0 0 1-2.889 5.451l-3.485 2.365v5.691l5.494-4a10.982 10.982 0 0 0 4.523-8.882V513.3a7.057 7.057 0 0 0-7.057-7.057" transform="translate(-169.345 -160.499)" style="fill:#f9af43"/>
        <path data-name="패스 28563" d="M541.874 508.349v-1.964l-.712-.142h-1.491v3.87h2.715a3.757 3.757 0 0 1 3.756 3.756v6.412c0 .037-.006.073-.007.11.059-.269.118-.552.177-.859 2.39-12.379-4.439-11.183-4.439-11.183" transform="translate(-171.097 -160.5)" style="fill:#f6980f"/>
        <path data-name="패스 28564" d="m549.83 517.462-.142-.262s-.427 8.025-2.561 11.354-6.972 3.2-6.972 3.2l-.342.4v5.106l5.495-4a10.982 10.982 0 0 0 4.522-8.882z" transform="translate(-171.143 -163.973)" style="fill:#f6980f"/>
        <path data-name="패스 28565" d="M509.376 478.945a.34.34 0 0 1-.253-.113c-3.576-3.971-5.247-7.853-4.966-11.54a10.823 10.823 0 0 1 3.865-7.336 10.823 10.823 0 0 0 3.646-12.267 15.731 15.731 0 0 0-6.917-8.594.341.341 0 0 1 .313-.606 16.133 16.133 0 0 1 7.255 8.993 11.473 11.473 0 0 1-3.866 13 10.129 10.129 0 0 0-3.616 6.86c-.266 3.493 1.346 7.2 4.792 11.03a.342.342 0 0 1-.253.57" transform="translate(-159.828 -139.006)" style="fill:#b8bbbf"/>
        <path data-name="패스 28566" d="M517.252 487.453a.34.34 0 0 1-.253-.113c-3.012-3.342-6.239-8.46-4.511-13.866a12.488 12.488 0 0 1 3.512-4.995 17.994 17.994 0 0 0 2.6-3.035.341.341 0 1 1 .577.365 18.479 18.479 0 0 1-2.688 3.152 11.778 11.778 0 0 0-3.344 4.721c-1.63 5.1 1.475 9.992 4.367 13.2a.342.342 0 0 1-.253.57" transform="translate(-162.326 -147.514)" style="fill:#b8bbbf"/>
        <path data-name="사각형 10721" transform="translate(337.924 359.459)" style="fill:#f0f6ff" d="M0 0h30.65v6.488H0z"/>
        <path data-name="사각형 10722" transform="translate(337.925 354.85)" style="fill:#f0f6ff" d="M0 0h30.65v2.049H0z"/>
        <path data-name="패스 28567" d="M397.191 549.608a2.576 2.576 0 0 0-2.576-2.576H281.461v5.152h113.154a2.576 2.576 0 0 0 2.576-2.576" transform="translate(-89.235 -173.431)" style="fill:#4b8eff"/>
        <path data-name="패스 28568" d="m267.117 516.844-113.256-.309a8.876 8.876 0 0 1-7.931-4.96l-33.6-68.065a6.524 6.524 0 0 1 .3-6.317 6.449 6.449 0 0 1 5.5-3.064l100.093.273a13.268 13.268 0 0 1 11.853 7.412z" transform="translate(-35.399 -137.636)" style="fill:#2a6df4"/>
        <path data-name="패스 28569" d="M261.645 516.908c-88.316-11.736-128.958-51.834-147.186-81.1a6.48 6.48 0 0 0-2.132 8.232l33.6 68.066a8.877 8.877 0 0 0 7.931 4.96l111.165.3q-1.648-.235-3.38-.464" transform="translate(-35.399 -138.17)" style="fill:#2467ee"/>
        <path data-name="패스 28570" d="M220 494.388c1.694 4.893-.442 8.9-4.77 8.944s-9.21-3.881-10.9-8.774.443-8.9 4.77-8.943 9.209 3.881 10.9 8.773" transform="translate(-64.596 -153.959)" style="fill:#0146f2"/>
        <path data-name="패스 28571" d="M215.659 434.4a13.274 13.274 0 0 1 11.853 7.371l37.033 74.6 5.471.015-37.04-74.617a13.274 13.274 0 0 0-11.853-7.371l-100.094-.272c-.077 0-.153.012-.23.014z" transform="translate(-38.298 -137.636)" style="fill:#4b8eff"/>
        <path data-name="패스 28572" d="M301.879 374.251h-72.718a.342.342 0 1 1 0-.683h72.718a.342.342 0 1 1 0 .683"/>
        <path data-name="패스 28573" d="m277.146 446.909 33.692 66.93z" transform="translate(-87.866 -141.688)" style="fill:#eaf1fe"/>
        <path data-name="패스 28574" d="M222.972 372.492a.342.342 0 0 1-.305-.188l-33.693-66.934a.342.342 0 0 1 .611-.307l33.692 66.93a.342.342 0 0 1-.3.5"/>
        <path data-name="패스 28575" d="M209.087 333.56a.343.343 0 0 1-.307-.19l-14.408-29.086a13.346 13.346 0 0 0-11.028-7.32H82.768a.342.342 0 0 1 0-.683h100.594c8.3.432 11.6 7.64 11.629 7.712l14.4 29.074a.342.342 0 0 1-.154.458.347.347 0 0 1-.152.036"/>
        <path data-name="패스 28576" d="M108.893 370.35a.341.341 0 0 1-.307-.191l-29.979-60.986a.342.342 0 0 1 .613-.3l29.978 60.986a.342.342 0 0 1-.306.492"/>
        <path data-name="패스 28577" d="M82.815 540.242H68.766l-5.421-30.724a1.993 1.993 0 0 1 1.964-2.341h20.962a1.994 1.994 0 0 1 1.964 2.341z" transform="translate(-20.073 -160.796)" style="fill:#1039a0"/>
        <path data-name="패스 28578" d="M67.622 507.178h-2.314a1.994 1.994 0 0 0-1.964 2.341l5.421 30.723L82.856 540l.542-3.068c-4.979-.792-14.886-11.491-15.776-29.758" transform="translate(-20.073 -160.796)" style="fill:#355ec5"/>
        <path data-name="패스 28579" d="M84.567 484.637a1.027 1.027 0 0 1-.756-1.074c.056-.772.087-1.56.087-2.362v-.226l5.4-2.739a.606.606 0 0 0-.242-1.145l-4.6-.238a1.032 1.032 0 0 1-.962-.875 29.05 29.05 0 0 0-.566-2.7 1.03 1.03 0 0 1 .346-1.068l3.928-3.155a.606.606 0 0 0-.473-1.072l-4.729.742a1.018 1.018 0 0 1-1.049-.506 15.085 15.085 0 0 0-.889-1.414 1.035 1.035 0 0 1-.168-.874c.26-.963.861-3.2 1.32-4.9a.605.605 0 0 0-1.015-.583l-3.028 3.034a.534.534 0 0 1-.895-.24l-1.286-4.821a.606.606 0 0 0-1.171 0l-1.277 4.79a1.022 1.022 0 0 1-.535.653c-.052.026-.1.052-.156.079l-3.488-3.5a.606.606 0 0 0-1.014.585l1.4 5.186a.965.965 0 0 1-.143.8q-.4.584-.766 1.244a1.015 1.015 0 0 1-1.047.5l-4.956-.777a.606.606 0 0 0-.473 1.072l4.133 3.32a1.031 1.031 0 0 1 .348 1.063 29.114 29.114 0 0 0-.524 2.523 1.032 1.032 0 0 1-.962.875l-4.851.251a.606.606 0 0 0-.243 1.145l5.635 2.87v.1c0 .78.029 1.546.082 2.3a1.027 1.027 0 0 1-.757 1.072l-4.5 1.2a.606.606 0 0 0 0 1.171l5.446 1.453a1.021 1.021 0 0 1 .721.734c.159.609.335 1.2.527 1.77a1.01 1.01 0 0 0 .96.677h14.05a1.01 1.01 0 0 0 .961-.677c.2-.588.381-1.2.544-1.832a1.032 1.032 0 0 1 .729-.744l5.174-1.38a.606.606 0 0 0 0-1.171z" transform="translate(-18.68 -145.196)" style="fill:#52cecb"/>
        <g data-name="그룹 48736" style="mix-blend-mode:multiply;isolation:isolate">
            <g data-name="그룹 48735">
                <g data-name="그룹 48734" style="clip-path:url(#i3xge8tbhg)" transform="translate(50.574 320.847)">
                    <path data-name="패스 28580" d="M78.156 469.79s-2.862 8.846-2.319 15.022a28.423 28.423 0 0 0 3.122 10.654l-3.212-.27s-5.113-14.912 2.409-25.406" transform="translate(-74.05 -469.79)" style="fill:#52cecb"/>
                </g>
            </g>
        </g>
        <path data-name="패스 28581" d="m238.113 233.673-.257-.632c7.956-3.232 11.323-20.132 11.356-20.3l.671.13c-.139.71-3.471 17.434-11.769 20.805"/>
        <path data-name="패스 28582" d="m344.28 257.906-.055.04a3.373 3.373 0 0 0-.841 4.571c6.885 10.541 9.913 24.815 9.967 25.08l6.692-1.364c-.215-1.055-3.331-15.8-10.975-27.45a3.361 3.361 0 0 0-4.789-.878" transform="translate(-108.692 -81.562)" style="fill:#2a6df4"/>
        <path data-name="패스 28583" d="M370.557 298.184a11.048 11.048 0 1 1-11.048-11.048 11.047 11.047 0 0 1 11.048 11.048" transform="translate(-110.476 -91.034)" style="fill:#2a6df4"/>
        <path data-name="패스 28584" d="M316.438 243.028a9.218 9.218 0 0 0-6.985 4.139 14.321 14.321 0 0 0-1.959 5.005c.354-.531.727-1.046 1.113-1.55a12.084 12.084 0 0 1 1.416-3.079 8.566 8.566 0 0 1 6.493-3.837c14.563-1.649 20.747 16.993 20.808 17.181l.649-.209c-.062-.194-6.4-19.372-21.535-17.65" transform="translate(-97.488 -77.015)" style="fill:#2a6df4"/>
        <path data-name="패스 28585" d="M257.005 214.27a10.693 10.693 0 1 1-14.277-15.757l.2-.146-.075-.234a74.539 74.539 0 0 0-7.873-17.364 3.056 3.056 0 0 1 .812-4.15 2.954 2.954 0 0 1 1.759-.579 3.074 3.074 0 0 1 .544.049c.014 0 .028.008.042.012.766.112.766-.529.092-.681a3.68 3.68 0 0 0-2.9.688 3.723 3.723 0 0 0-.925 5.033 73.468 73.468 0 0 1 7.721 16.967 11.376 11.376 0 1 0 15.255 16.761c.414-.581.109-.945-.377-.6"/>
        <path data-name="패스 28586" d="m339.928 343.408-11.528 3.746c-1.424.316-2.93-1.011-3.363-2.965s.369-3.793 1.794-4.109l12.033-1.481c1.424-.316 2.679-.121 3.112 1.833s-.621 2.661-2.045 2.977" transform="translate(-103.011 -107.311)" style="fill:#2a6df4"/>
        <path data-name="패스 28587" d="M215.491 319.987a74.968 74.968 0 0 0 36.4 9.042c-25.942 10.649-53.354 9.191-78.09-3.508a95.811 95.811 0 0 0 41.686-5.535" transform="translate(-55.103 -101.449)" style="fill:#fff"/>
        <path data-name="패스 28588" d="m202.486 318.311-29.316 6.6a24.587 24.587 0 0 1-10.805-47.972l29.316-6.6a24.586 24.586 0 0 1 10.805 47.971" transform="translate(-45.392 -85.516)" style="fill:#fff"/>
        <path data-name="사각형 10724" transform="rotate(-13.166 975.6 -365.695)" style="fill:#cadcfe" d="M0 0h48.984v5.713H0z"/>
        <path data-name="사각형 10725" transform="rotate(-13.18 1015.272 -374.29)" style="fill:#cadcfe" d="M0 0h36.763v4.9H0z"/>
        <path data-name="패스 28589" d="M47.993 555.071z" transform="translate(-15.216 -175.98)" style="fill:#fff"/>
        <path data-name="패스 28590" d="M0 0h462.516v379.446H0z" style="fill:none"/>
        <path data-name="사각형 10728" transform="translate(0 28.525)" style="fill:none" d="M0 0h462.516v379.446H0z"/>
    </g>
</svg>
