<svg xmlns="http://www.w3.org/2000/svg" width="26.95" height="28.502" viewBox="0 0 26.95 28.502">
    <g data-name="그룹 22321" style="opacity:.4">
        <g data-name="그룹 22335">
            <path data-name="패스 13144" d="M13.475 0C6.032 0 0 5.58 0 12.464c0 5.084 2.129 7.511 5.046 9.723l.014.007v5.966a.343.343 0 0 0 .547.275l5.109-3.795.111.047a14.6 14.6 0 0 0 2.649.242c7.442 0 13.475-5.581 13.475-12.464S20.917 0 13.475 0M8.958 15.622a2.815 2.815 0 0 0 2.791-2.012H13.7a4.675 4.675 0 0 1-4.742 3.89 4.955 4.955 0 0 1-5.078-5.052A4.955 4.955 0 0 1 8.958 7.4a4.68 4.68 0 0 1 4.758 3.964h-1.948a2.778 2.778 0 0 0-2.81-2.114 3.05 3.05 0 0 0-3.171 3.2 3.128 3.128 0 0 0 3.171 3.172m12.873 1.686h-1.79v-4.039a1.286 1.286 0 0 0-1.374-1.43c-.93 0-1.526.569-1.526 1.721v3.748h-1.792V7.429h1.791v3.716a2.3 2.3 0 0 1 2.068-.971 2.457 2.457 0 0 1 1.873.763 2.882 2.882 0 0 1 .75 2.11z" style="fill:#fff"/>
        </g>
    </g>
</svg>
