<svg xmlns="http://www.w3.org/2000/svg" width="26.535" height="26.535" viewBox="0 0 26.535 26.535">
    <defs>
        <clipPath id="deb3jfrkfa">
            <path data-name="사각형 3891" style="fill:#fff" d="M0 0h26.535v26.535H0z"/>
        </clipPath>
    </defs>
    <g data-name="그룹 22737" style="opacity:.4">
        <g data-name="그룹 22736" style="clip-path:url(#deb3jfrkfa)">
            <path data-name="패스 13199" d="M13.268 2.391c3.543 0 3.962.013 5.361.077a7.339 7.339 0 0 1 2.464.457 4.107 4.107 0 0 1 1.525.992 4.109 4.109 0 0 1 .992 1.525 7.344 7.344 0 0 1 .457 2.464c.064 1.4.077 1.819.077 5.361s-.014 3.962-.077 5.361a7.341 7.341 0 0 1-.457 2.464 4.393 4.393 0 0 1-2.518 2.518 7.339 7.339 0 0 1-2.464.457c-1.4.064-1.818.077-5.361.077s-3.962-.013-5.361-.077a7.333 7.333 0 0 1-2.463-.457 4.114 4.114 0 0 1-1.526-.992 4.114 4.114 0 0 1-.992-1.526 7.349 7.349 0 0 1-.457-2.464c-.064-1.4-.077-1.818-.077-5.361s.013-3.962.077-5.361a7.353 7.353 0 0 1 .457-2.464 4.115 4.115 0 0 1 .992-1.525 4.11 4.11 0 0 1 1.526-.992 7.333 7.333 0 0 1 2.463-.457c1.4-.064 1.819-.077 5.361-.077m0-2.391C9.664 0 9.213.015 7.8.08A9.744 9.744 0 0 0 4.577.7a6.5 6.5 0 0 0-2.35 1.53A6.5 6.5 0 0 0 .7 4.577 9.726 9.726 0 0 0 .08 7.8C.015 9.213 0 9.664 0 13.268s.015 4.055.08 5.47a9.727 9.727 0 0 0 .62 3.221 6.5 6.5 0 0 0 1.53 2.35 6.5 6.5 0 0 0 2.35 1.53 9.742 9.742 0 0 0 3.22.617c1.415.065 1.867.08 5.47.08s4.055-.015 5.47-.08a9.742 9.742 0 0 0 3.221-.617 6.785 6.785 0 0 0 3.88-3.88 9.745 9.745 0 0 0 .617-3.221c.064-1.415.08-1.867.08-5.47s-.015-4.055-.08-5.47a9.745 9.745 0 0 0-.617-3.22 6.5 6.5 0 0 0-1.53-2.35A6.5 6.5 0 0 0 21.958.7a9.744 9.744 0 0 0-3.22-.62C17.323.015 16.871 0 13.268 0" style="fill:#fff"/>
            <path data-name="패스 13200" d="M498.58 122.9a1.592 1.592 0 1 1-1.592-1.592 1.593 1.593 0 0 1 1.592 1.592" transform="translate(-476.638 -116.715)" style="fill:#fff"/>
            <path data-name="패스 13201" d="M181.982 175.358a6.628 6.628 0 1 0 6.629 6.627 6.628 6.628 0 0 0-6.629-6.627m0 11.049a4.422 4.422 0 1 1 4.422-4.422 4.422 4.422 0 0 1-4.422 4.422" transform="translate(-168.715 -168.718)" style="fill:#fff"/>
        </g>
    </g>
</svg>
