<svg xmlns="http://www.w3.org/2000/svg" width="39.572" height="72.203" viewBox="0 0 39.572 72.203">
    <path data-name="패스 28593" d="M17.818-21.927a29.538 29.538 0 0 1 1.191-8.943 15.405 15.405 0 0 1 3.332-5.8 31.065 31.065 0 0 1 5.9-4.7 19.583 19.583 0 0 0 5.8-5.456 12.09 12.09 0 0 0 1.968-6.837 11.764 11.764 0 0 0-1.692-6.3 11.6 11.6 0 0 0-4.61-4.264 13.8 13.8 0 0 0-6.474-1.519 13.69 13.69 0 0 0-6.3 1.468 11.822 11.822 0 0 0-4.7 4.351A14.146 14.146 0 0 0 10.221-53h-7.01a19.216 19.216 0 0 1 2.849-9.845 18.011 18.011 0 0 1 7.165-6.544 21.665 21.665 0 0 1 10.014-2.3 21.413 21.413 0 0 1 10.169 2.348 17.2 17.2 0 0 1 6.906 6.509 18.086 18.086 0 0 1 2.469 9.41 17.109 17.109 0 0 1-2.417 9.168 23.276 23.276 0 0 1-7.389 7.131 23.892 23.892 0 0 0-4.99 4.092 12.378 12.378 0 0 0-2.573 4.631 24.019 24.019 0 0 0-.863 6.474v1.692h-6.733zM16.195-4.7a4.775 4.775 0 0 1 .673-2.6 5.318 5.318 0 0 1 1.916-1.9 5.1 5.1 0 0 1 2.624-.708 5.011 5.011 0 0 1 2.607.708 5.361 5.361 0 0 1 1.9 1.9 5.011 5.011 0 0 1 .708 2.6 5.011 5.011 0 0 1-.708 2.607 5.361 5.361 0 0 1-1.9 1.9 5.011 5.011 0 0 1-2.607.708 5.1 5.1 0 0 1-2.623-.705 5.318 5.318 0 0 1-1.916-1.9 4.775 4.775 0 0 1-.674-2.61z" transform="translate(-3.211 71.685)" style="fill:#fff"/>
</svg>
