<svg xmlns="http://www.w3.org/2000/svg" width="195.069" height="43.453" viewBox="0 0 195.069 43.453">
    <defs>
        <clipPath id="hpg6t3s35a">
            <path data-name="사각형 3899" style="fill:none" d="M0 0h43.368v43.453H0z"/>
        </clipPath>
    </defs>
    <g data-name="그룹 23006">
        <g data-name="그룹 22726">
            <path data-name="패스 13377" d="M53.447 10.415h16.444l-1.276 6.025h-9.533l-.886 4.182h7.726l-1.17 5.6h-7.761l-1.985 9.356h-6.911zm23.994 0h6.344l2.8 25.163h-7.018l-.248-4.926h-6.025l-2.3 4.926h-7.057zm1.772 15.629-.284-7.8-3.65 7.8zm14.672-15.629h5.391l6.379 12.794 2.69-12.794h6.911l-5.352 25.163h-5.458l-6.379-12.369-2.623 12.369h-6.911zm25.695 0h16.444l-1.276 6.025h-9.533l-.886 4.182h7.726l-1.17 5.6h-7.761l-1.985 9.356h-6.911zm19.351 0h16.445L154.1 16.44h-9.535l-.889 4.182h7.726l-1.17 5.6h-7.756l-1.985 9.356h-6.915zm19.351 0h6.911l-4.077 19.138h10.6l-1.276 6.025h-17.511zm19.989 0h16.8l-1.276 6.025h-9.888l-.744 3.544h8.435l-1.208 5.601h-8.434l-.851 3.969h10.207l-1.276 6.025h-17.118z"/>
        </g>
        <g data-name="그룹 22925">
            <g data-name="그룹 22924" style="clip-path:url(#hpg6t3s35a)">
                <path data-name="패스 13364" d="M49.578 25.953a3.559 3.559 0 0 0-2.066-3.228 3.557 3.557 0 0 0-3.067-6.3A3.561 3.561 0 0 0 38.9 12.3v-.044a3.56 3.56 0 0 0-6.9-1.229 3.56 3.56 0 0 0-7.1-.364 3.559 3.559 0 0 0-6.741 1.6v.044a3.561 3.561 0 0 0-5.547 4.119 3.558 3.558 0 0 0-3.067 6.3 3.558 3.558 0 0 0 .84 6.727 3.559 3.559 0 0 0 2.473 5.207c-.007.069-.015.138-.018.206a3.467 3.467 0 0 0 3.12 3.575h1.086c0 .149.008.285.011.4a1.577 1.577 0 0 0 1.018 1.594c0 .023 0 .051.005.072.292 3.392 1.393 4.572 2.766 5.367a12.25 12.25 0 0 0 4.536 1.156 3.208 3.208 0 0 0 6.313 0 12.2 12.2 0 0 0 4.506-1.153c1.373-.795 2.473-1.976 2.766-5.367 0-.021 0-.048.006-.071A1.576 1.576 0 0 0 40 38.842c0-.117.007-.253.012-.4H41.1a3.466 3.466 0 0 0 3.12-3.575c0-.068-.01-.137-.018-.206a3.559 3.559 0 0 0 2.472-5.207 3.561 3.561 0 0 0 2.906-3.5" transform="translate(-6.846 -6.846)" style="fill:#ff4e23"/>
                <path data-name="패스 13365" d="M49.578 25.953a3.559 3.559 0 0 0-2.066-3.228 3.557 3.557 0 0 0-3.067-6.3A3.561 3.561 0 0 0 38.9 12.3v-.044a3.56 3.56 0 0 0-6.9-1.229 3.56 3.56 0 0 0-7.1-.364 3.559 3.559 0 0 0-6.741 1.6v.044a3.561 3.561 0 0 0-5.547 4.119 3.558 3.558 0 0 0-3.067 6.3 3.558 3.558 0 0 0 .84 6.727 3.559 3.559 0 0 0 2.473 5.207c-.007.069-.015.138-.018.206a3.467 3.467 0 0 0 3.12 3.575h1.086c0 .149.008.285.011.4a1.577 1.577 0 0 0 1.018 1.594c0 .023 0 .051.005.072.292 3.392 1.393 4.572 2.766 5.367a12.25 12.25 0 0 0 4.536 1.156 3.208 3.208 0 0 0 6.313 0 12.2 12.2 0 0 0 4.506-1.153c1.373-.795 2.473-1.976 2.766-5.367 0-.021 0-.048.006-.071A1.576 1.576 0 0 0 40 38.842c0-.117.007-.253.012-.4H41.1a3.466 3.466 0 0 0 3.12-3.575c0-.068-.01-.137-.018-.206a3.559 3.559 0 0 0 2.472-5.207 3.561 3.561 0 0 0 2.904-3.501z" transform="translate(-6.846 -6.846)" style="fill:none"/>
                <path data-name="패스 13366" d="M80.237 189.1s-2.5.39-3.353-.546a3.759 3.759 0 0 1-1.325-3.274 4.539 4.539 0 0 1 1.949-2.729l2.573-.156.078-6.783a5.5 5.5 0 0 1 3.976-2.962c2.729-.312 4.054 2.183 6.081 2.183s4.054-2.183 5.613-2.183 5.458-.39 5.38 3.04a56.3 56.3 0 0 0 .234 6.393s3.976.078 4.288 1.637a8.5 8.5 0 0 1 0 3.04 2.319 2.319 0 0 1-1.793 2.027 8.6 8.6 0 0 1-2.651.156l-.468 1.248s.39 3.742-1.4 5.223a13.82 13.82 0 0 1-8.576 2.417c-3.2-.156-7.641-.546-8.732-2.105s-1.871-6.627-1.871-6.627" transform="translate(-69.117 -157.952)" style="fill:#ffa2b3"/>
                <path data-name="패스 13367" d="M164.269 265.68a3.508 3.508 0 1 0-3.508 3.508 3.508 3.508 0 0 0 3.508-3.508" transform="translate(-143.891 -239.896)" style="fill:#ff4e23"/>
                <path data-name="패스 13368" d="M274.381 265.68a3.508 3.508 0 1 0-3.508 3.508 3.508 3.508 0 0 0 3.508-3.508" transform="translate(-244.647 -239.896)" style="fill:#ff4e23"/>
                <path data-name="패스 13369" d="M176.184 373.731c.417-1.459.994-1.637 2.105-1.169a10.632 10.632 0 0 0 4.327.935c1.345-.117 3.567-.877 4.97-1.052s1.871.351 1.93 1.345a2.808 2.808 0 0 1-1.637 2.632 16.014 16.014 0 0 1-5.146 1.052c-1.7.058-5.438-.643-6.14-1.287a2.349 2.349 0 0 1-.409-2.456" transform="translate(-161.068 -340.696)" style="fill:#fff"/>
                <path data-name="패스 13370" d="M176.583 284.041a1.964 1.964 0 1 0 1.963-1.891 1.928 1.928 0 0 0-1.963 1.891" transform="translate(-161.579 -258.177)" style="fill:#00a7ed"/>
                <path data-name="패스 13371" d="M287.216 284.041a1.963 1.963 0 1 0 1.962-1.891 1.928 1.928 0 0 0-1.962 1.891" transform="translate(-262.813 -258.177)" style="fill:#00a7ed"/>
                <path data-name="패스 13372" d="M49.578 25.952a3.559 3.559 0 0 0-2.066-3.228 3.557 3.557 0 0 0-3.067-6.3A3.561 3.561 0 0 0 38.9 12.3v-.044a3.56 3.56 0 0 0-6.9-1.23 3.56 3.56 0 0 0-7.1-.364 3.559 3.559 0 0 0-6.741 1.6v.044a3.561 3.561 0 0 0-5.547 4.119 3.558 3.558 0 0 0-3.067 6.3 3.558 3.558 0 0 0 .84 6.727 3.559 3.559 0 0 0 2.473 5.207c-.007.069-.015.138-.018.206a3.467 3.467 0 0 0 3.12 3.575h1.087c0 .149.008.285.011.4a1.577 1.577 0 0 0 1.018 1.594c0 .023 0 .051.005.072.292 3.392 1.393 4.572 2.766 5.367a12.25 12.25 0 0 0 4.536 1.156 3.208 3.208 0 0 0 6.313 0 12.2 12.2 0 0 0 4.507-1.153c1.373-.795 2.473-1.976 2.766-5.367 0-.021 0-.048.006-.071A1.576 1.576 0 0 0 40 38.841c0-.117.007-.253.012-.4H41.1a3.466 3.466 0 0 0 3.12-3.575c0-.068-.01-.137-.018-.206a3.559 3.559 0 0 0 2.472-5.207 3.561 3.561 0 0 0 2.906-3.5m-11.366.188c0 1.176.048 3.171.025 5-.881-1.722-3.286-2.281-5.024-2.281-2.753 0-3.651.531-3.91 2.181h-1.543c-.259-1.65-1.157-2.181-3.91-2.181-1.743 0-4.154.562-5.03 2.293-.023-1.83.025-3.831.025-5.01 0-3.146 3.9-4.4 5.577-2.716a5.441 5.441 0 0 0 4.065 1.536h.082a5.442 5.442 0 0 0 4.065-1.536c1.68-1.68 5.577-.429 5.577 2.716m-1.889 6.576a3.094 3.094 0 1 1-3.092-2.981 3.041 3.041 0 0 1 3.092 2.981m-9.4 0a3.094 3.094 0 1 1-3.092-2.981 3.041 3.041 0 0 1 3.092 2.981m-10.964 4.51a2.313 2.313 0 0 1-2.152-2.446 2.351 2.351 0 0 1 2.21-2.505h.886c.007.27.016.581.023.922a3.332 3.332 0 0 0-.549.022 1.7 1.7 0 0 0-1.358 2.431 1.878 1.878 0 0 1 1.358-1.5 1.258 1.258 0 0 1 .572.032l.067 3.046zm19.564 7.61a9.27 9.27 0 0 1-3.733.926c-.19-1.266-1.572-.96-3.251-.96s-3.063-.307-3.252.962a9.334 9.334 0 0 1-3.762-.929c-1.225-.71-2.212-1.7-2.431-4.326-.112-1.352-.144-3.136-.164-4.145-.012-.75-.025-1.51-.039-2.2.969 1.675 3.456 2.337 5.172 2.337A3.853 3.853 0 0 0 27.78 33.4h1.5A3.852 3.852 0 0 0 33 36.507c1.713 0 4.193-.66 5.166-2.327l-.029 1.6c-.025.688-.039 3.046-.179 4.731-.219 2.629-1.206 3.616-2.432 4.326m5.572-7.61H40.04c.022-.932.045-2.04.068-3.046a1.253 1.253 0 0 1 .571-.032 1.879 1.879 0 0 1 1.358 1.5 1.7 1.7 0 0 0-1.358-2.431 3.333 3.333 0 0 0-.549-.022l.023-.922h.886a2.352 2.352 0 0 1 2.211 2.505 2.313 2.313 0 0 1-2.15 2.448" transform="translate(-6.846 -6.845)" style="fill:#231f20"/>
                <path data-name="패스 13373" d="M179.285 367.739a11.522 11.522 0 0 1-4.016.822 11.2 11.2 0 0 1-4.018-.822 2.436 2.436 0 0 0-3.181 1.073 2.485 2.485 0 0 0 .965 3.145c.811.624 2.9 1.383 6.2 1.429h.072c3.3-.046 5.386-.8 6.2-1.429a2.485 2.485 0 0 0 .965-3.145 2.436 2.436 0 0 0-3.181-1.073m1.43 3.575a13.168 13.168 0 0 1-10.894 0 1.642 1.642 0 0 1-.715-2 1.463 1.463 0 0 1 2-.643 12.109 12.109 0 0 0 4.1.746h.079a12.5 12.5 0 0 0 4.14-.745 1.464 1.464 0 0 1 2 .643 1.642 1.642 0 0 1-.715 2" transform="translate(-153.572 -336.325)" style="fill:#231f20"/>
                <path data-name="패스 13374" d="M245.318 397.885c-.515 0-.931.289-.931.646s.417.646.931.646.931-.289.931-.646-.417-.646-.931-.646" transform="translate(-223.622 -364.078)" style="fill:#231f20"/>
                <path data-name="패스 13375" d="M206.674 393.92c-.414-.1-.807.051-.877.338s.21.6.624.7.807-.051.877-.338-.21-.6-.625-.7" transform="translate(-188.302 -360.422)" style="fill:#231f20"/>
                <path data-name="패스 13376" d="M287.622 393.92c-.414.1-.694.415-.624.7s.462.439.876.338.695-.415.624-.7-.462-.439-.877-.338" transform="translate(-262.603 -360.422)" style="fill:#231f20"/>
            </g>
        </g>
    </g>
</svg>
