<svg xmlns="http://www.w3.org/2000/svg" xmlns:xlink="http://www.w3.org/1999/xlink" width="26.95" height="28.502" viewBox="0 0 26.95 28.502">
  <defs>
    <style>
      .cls-1 {
        fill: none;
      }

      .cls-2 {
        clip-path: url(#clip-path);
      }

      .cls-3 {
        fill: #fff;
      }
    </style>
    <clipPath id="clip-path">
      <rect id="사각형_3711" data-name="사각형 3711" class="cls-1" width="26.95" height="28.502" transform="translate(0 0)"/>
    </clipPath>
  </defs>
  <g id="그룹_22956" data-name="그룹 22956" transform="translate(0 0)">
    <g id="그룹_22320" data-name="그룹 22320" class="cls-2" transform="translate(0 0)">
      <path id="패스_13143" data-name="패스 13143" d="M14.584,1.851C7.5,1.851,1.75,7.166,1.75,13.722c0,4.842,2.028,7.153,4.806,9.261l.013.006v5.682a.326.326,0,0,0,.522.261l4.866-3.614.105.045a13.929,13.929,0,0,0,2.523.23c7.088,0,12.834-5.315,12.834-11.871S21.672,1.851,14.584,1.851" transform="translate(-1.109 -1.173)"/>
      <path id="패스_13144" data-name="패스 13144" class="cls-3" d="M13.475,0C6.032,0,0,5.58,0,12.464c0,5.084,2.129,7.511,5.046,9.723l.014.007v5.966a.343.343,0,0,0,.547.275l5.109-3.795.111.047a14.6,14.6,0,0,0,2.649.242c7.442,0,13.475-5.581,13.475-12.464S20.917,0,13.475,0M8.958,15.622a2.815,2.815,0,0,0,2.791-2.012H13.7A4.675,4.675,0,0,1,8.958,17.5a4.955,4.955,0,0,1-5.078-5.052A4.955,4.955,0,0,1,8.958,7.4a4.68,4.68,0,0,1,4.758,3.964H11.768A2.778,2.778,0,0,0,8.958,9.25a3.05,3.05,0,0,0-3.171,3.2,3.128,3.128,0,0,0,3.171,3.172m12.873,1.686H20.041V13.269a1.286,1.286,0,0,0-1.374-1.43c-.93,0-1.526.569-1.526,1.721v3.748H15.349V7.429H17.14v3.716a2.3,2.3,0,0,1,2.068-.971,2.457,2.457,0,0,1,1.873.763,2.882,2.882,0,0,1,.75,2.11Z" transform="translate(0 0)"/>
    </g>
  </g>
</svg>
